<?xml version="1.0" encoding="UTF-8"?>
<svg width="170px" height="170px" viewBox="0 0 170 170" version="1.1" xmlns="http://www.w3.org/2000/svg" xmlns:xlink="http://www.w3.org/1999/xlink">
    <title>Dagger</title>
    <defs>
        <path d="M20.667025,38.3120502 L14.3285562,44.6491752 C13.8044937,45.1732377 13.8044937,46.021144 14.3285562,46.5438627 L14.3285562,46.5438627 L22.3279,54.5432065 C17.571025,60.3643315 12.6932125,66.1034877 7.55874374,71.6155502 L7.55874374,71.6155502 L6.02552499,70.0823315 C5.50280624,69.5596127 4.65624374,69.5596127 4.13486874,70.0823315 L4.13486874,70.0823315 L2.62852499,71.5886752 C0.876274989,73.326144 -0.0132875113,75.6575502 0,77.948644 L0,77.948644 C-0.0132875113,80.238394 0.876274989,82.571144 2.62852499,84.3207065 L2.62852499,84.3207065 L10.390025,92.0674252 C12.1409312,93.821019 14.4589,94.7105815 16.74865,94.7105815 L16.74865,94.7105815 C19.0531812,94.7105815 21.37115,93.821019 23.1220562,92.0674252 L23.1220562,92.0674252 L24.6243687,90.5758627 C25.1484312,90.0544877 25.149775,89.2052377 24.6270562,88.6811752 L24.6270562,88.6811752 L22.81165,86.8684565 C28.310275,81.7474252 34.050775,76.8696127 39.8839937,72.100644 L39.8839937,72.100644 L47.8833375,80.098644 C48.4074,80.6227065 49.2553062,80.6227065 49.7766812,80.098644 L49.7766812,80.098644 L56.11515,73.761519 C56.6392125,73.2388002 56.6392125,72.3922377 56.11515,71.8681752 L56.11515,71.8681752 L49.9621187,65.7138002 L28.7281812,44.478519 L22.5603687,38.3120502 C22.2983375,38.050019 21.9556812,37.9196752 21.613025,37.9196752 L21.613025,37.9196752 C21.2703687,37.9196752 20.9277125,38.050019 20.667025,38.3120502" id="path-1"></path>
        <path d="M20.667025,38.3120502 L14.3285562,44.6491752 C13.8044937,45.1732377 13.8044937,46.021144 14.3285562,46.5438627 L14.3285562,46.5438627 L22.3279,54.5432065 C17.571025,60.3643315 12.6932125,66.1034877 7.55874374,71.6155502 L7.55874374,71.6155502 L6.02552499,70.0823315 C5.50280624,69.5596127 4.65624374,69.5596127 4.13486874,70.0823315 L4.13486874,70.0823315 L2.62852499,71.5886752 C0.876274989,73.326144 -0.0132875113,75.6575502 0,77.948644 L0,77.948644 C-0.0132875113,80.238394 0.876274989,82.571144 2.62852499,84.3207065 L2.62852499,84.3207065 L10.390025,92.0674252 C12.1409312,93.821019 14.4589,94.7105815 16.74865,94.7105815 L16.74865,94.7105815 C19.0531812,94.7105815 21.37115,93.821019 23.1220562,92.0674252 L23.1220562,92.0674252 L24.6243687,90.5758627 C25.1484312,90.0544877 25.149775,89.2052377 24.6270562,88.6811752 L24.6270562,88.6811752 L22.81165,86.8684565 C28.310275,81.7474252 34.050775,76.8696127 39.8839937,72.100644 L39.8839937,72.100644 L47.8833375,80.098644 C48.4074,80.6227065 49.2553062,80.6227065 49.7766812,80.098644 L49.7766812,80.098644 L56.11515,73.761519 C56.6392125,73.2388002 56.6392125,72.3922377 56.11515,71.8681752 L56.11515,71.8681752 L49.9621187,65.7138002 L28.7281812,44.478519 L22.5603687,38.3120502 C22.2983375,38.050019 21.9556812,37.9196752 21.613025,37.9196752 L21.613025,37.9196752 C21.2703687,37.9196752 20.9277125,38.050019 20.667025,38.3120502" id="path-3"></path>
        <path d="M20.667025,38.3120502 L14.3285562,44.6491752 C13.8044937,45.1732377 13.8044937,46.021144 14.3285562,46.5438627 L14.3285562,46.5438627 L22.3279,54.5432065 C17.571025,60.3643315 12.6932125,66.1034877 7.55874374,71.6155502 L7.55874374,71.6155502 L6.02552499,70.0823315 C5.50280624,69.5596127 4.65624374,69.5596127 4.13486874,70.0823315 L4.13486874,70.0823315 L2.62852499,71.5886752 C0.876274989,73.326144 -0.0132875113,75.6575502 0,77.948644 L0,77.948644 C-0.0132875113,80.238394 0.876274989,82.571144 2.62852499,84.3207065 L2.62852499,84.3207065 L10.390025,92.0674252 C12.1409312,93.821019 14.4589,94.7105815 16.74865,94.7105815 L16.74865,94.7105815 C19.0531812,94.7105815 21.37115,93.821019 23.1220562,92.0674252 L23.1220562,92.0674252 L24.6243687,90.5758627 C25.1484312,90.0544877 25.149775,89.2052377 24.6270562,88.6811752 L24.6270562,88.6811752 L22.81165,86.8684565 C28.310275,81.7474252 34.050775,76.8696127 39.8839937,72.100644 L39.8839937,72.100644 L47.8833375,80.098644 C48.4074,80.6227065 49.2553062,80.6227065 49.7766812,80.098644 L49.7766812,80.098644 L56.11515,73.761519 C56.6392125,73.2388002 56.6392125,72.3922377 56.11515,71.8681752 L56.11515,71.8681752 L49.9621187,65.7138002 L28.7281812,44.478519 L22.5603687,38.3120502 C22.2983375,38.050019 21.9556812,37.9196752 21.613025,37.9196752 L21.613025,37.9196752 C21.2703687,37.9196752 20.9277125,38.050019 20.667025,38.3120502" id="path-5"></path>
        <path d="M20.667025,38.3120502 L14.3285562,44.6491752 C13.8044937,45.1732377 13.8044937,46.021144 14.3285562,46.5438627 L14.3285562,46.5438627 L22.3279,54.5432065 C17.571025,60.3643315 12.6932125,66.1034877 7.55874374,71.6155502 L7.55874374,71.6155502 L6.02552499,70.0823315 C5.50280624,69.5596127 4.65624374,69.5596127 4.13486874,70.0823315 L4.13486874,70.0823315 L2.62852499,71.5886752 C0.876274989,73.326144 -0.0132875113,75.6575502 0,77.948644 L0,77.948644 C-0.0132875113,80.238394 0.876274989,82.571144 2.62852499,84.3207065 L2.62852499,84.3207065 L10.390025,92.0674252 C12.1409312,93.821019 14.4589,94.7105815 16.74865,94.7105815 L16.74865,94.7105815 C19.0531812,94.7105815 21.37115,93.821019 23.1220562,92.0674252 L23.1220562,92.0674252 L24.6243687,90.5758627 C25.1484312,90.0544877 25.149775,89.2052377 24.6270562,88.6811752 L24.6270562,88.6811752 L22.81165,86.8684565 C28.310275,81.7474252 34.050775,76.8696127 39.8839937,72.100644 L39.8839937,72.100644 L47.8833375,80.098644 C48.4074,80.6227065 49.2553062,80.6227065 49.7766812,80.098644 L49.7766812,80.098644 L56.11515,73.761519 C56.6392125,73.2388002 56.6392125,72.3922377 56.11515,71.8681752 L56.11515,71.8681752 L49.9621187,65.7138002 L28.7281812,44.478519 L22.5603687,38.3120502 C22.2983375,38.050019 21.9556812,37.9196752 21.613025,37.9196752 L21.613025,37.9196752 C21.2703687,37.9196752 20.9277125,38.050019 20.667025,38.3120502" id="path-7"></path>
        <path d="M20.667025,38.3120502 L14.3285562,44.6491752 C13.8044937,45.1732377 13.8044937,46.021144 14.3285562,46.5438627 L14.3285562,46.5438627 L22.3279,54.5432065 C17.571025,60.3643315 12.6932125,66.1034877 7.55874374,71.6155502 L7.55874374,71.6155502 L6.02552499,70.0823315 C5.50280624,69.5596127 4.65624374,69.5596127 4.13486874,70.0823315 L4.13486874,70.0823315 L2.62852499,71.5886752 C0.876274989,73.326144 -0.0132875113,75.6575502 0,77.948644 L0,77.948644 C-0.0132875113,80.238394 0.876274989,82.571144 2.62852499,84.3207065 L2.62852499,84.3207065 L10.390025,92.0674252 C12.1409312,93.821019 14.4589,94.7105815 16.74865,94.7105815 L16.74865,94.7105815 C19.0531812,94.7105815 21.37115,93.821019 23.1220562,92.0674252 L23.1220562,92.0674252 L24.6243687,90.5758627 C25.1484312,90.0544877 25.149775,89.2052377 24.6270562,88.6811752 L24.6270562,88.6811752 L22.81165,86.8684565 C28.310275,81.7474252 34.050775,76.8696127 39.8839937,72.100644 L39.8839937,72.100644 L47.8833375,80.098644 C48.4074,80.6227065 49.2553062,80.6227065 49.7766812,80.098644 L49.7766812,80.098644 L56.11515,73.761519 C56.6392125,73.2388002 56.6392125,72.3922377 56.11515,71.8681752 L56.11515,71.8681752 L49.9621187,65.7138002 L28.7281812,44.478519 L22.5603687,38.3120502 C22.2983375,38.050019 21.9556812,37.9196752 21.613025,37.9196752 L21.613025,37.9196752 C21.2703687,37.9196752 20.9277125,38.050019 20.667025,38.3120502" id="path-9"></path>
        <path d="M20.667025,38.3120502 L14.3285562,44.6491752 C13.8044937,45.1732377 13.8044937,46.021144 14.3285562,46.5438627 L14.3285562,46.5438627 L22.3279,54.5432065 C17.571025,60.3643315 12.6932125,66.1034877 7.55874374,71.6155502 L7.55874374,71.6155502 L6.02552499,70.0823315 C5.50280624,69.5596127 4.65624374,69.5596127 4.13486874,70.0823315 L4.13486874,70.0823315 L2.62852499,71.5886752 C0.876274989,73.326144 -0.0132875113,75.6575502 0,77.948644 L0,77.948644 C-0.0132875113,80.238394 0.876274989,82.571144 2.62852499,84.3207065 L2.62852499,84.3207065 L10.390025,92.0674252 C12.1409312,93.821019 14.4589,94.7105815 16.74865,94.7105815 L16.74865,94.7105815 C19.0531812,94.7105815 21.37115,93.821019 23.1220562,92.0674252 L23.1220562,92.0674252 L24.6243687,90.5758627 C25.1484312,90.0544877 25.149775,89.2052377 24.6270562,88.6811752 L24.6270562,88.6811752 L22.81165,86.8684565 C28.310275,81.7474252 34.050775,76.8696127 39.8839937,72.100644 L39.8839937,72.100644 L47.8833375,80.098644 C48.4074,80.6227065 49.2553062,80.6227065 49.7766812,80.098644 L49.7766812,80.098644 L56.11515,73.761519 C56.6392125,73.2388002 56.6392125,72.3922377 56.11515,71.8681752 L56.11515,71.8681752 L49.9621187,65.7138002 L28.7281812,44.478519 L22.5603687,38.3120502 C22.2983375,38.050019 21.9556812,37.9196752 21.613025,37.9196752 L21.613025,37.9196752 C21.2703687,37.9196752 20.9277125,38.050019 20.667025,38.3120502" id="path-11"></path>
        <path d="M20.667025,38.3120502 L14.3285562,44.6491752 C13.8044937,45.1732377 13.8044937,46.021144 14.3285562,46.5438627 L14.3285562,46.5438627 L22.3279,54.5432065 C17.571025,60.3643315 12.6932125,66.1034877 7.55874374,71.6155502 L7.55874374,71.6155502 L6.02552499,70.0823315 C5.50280624,69.5596127 4.65624374,69.5596127 4.13486874,70.0823315 L4.13486874,70.0823315 L2.62852499,71.5886752 C0.876274989,73.326144 -0.0132875113,75.6575502 0,77.948644 L0,77.948644 C-0.0132875113,80.238394 0.876274989,82.571144 2.62852499,84.3207065 L2.62852499,84.3207065 L10.390025,92.0674252 C12.1409312,93.821019 14.4589,94.7105815 16.74865,94.7105815 L16.74865,94.7105815 C19.0531812,94.7105815 21.37115,93.821019 23.1220562,92.0674252 L23.1220562,92.0674252 L24.6243687,90.5758627 C25.1484312,90.0544877 25.149775,89.2052377 24.6270562,88.6811752 L24.6270562,88.6811752 L22.81165,86.8684565 C28.310275,81.7474252 34.050775,76.8696127 39.8839937,72.100644 L39.8839937,72.100644 L47.8833375,80.098644 C48.4074,80.6227065 49.2553062,80.6227065 49.7766812,80.098644 L49.7766812,80.098644 L56.11515,73.761519 C56.6392125,73.2388002 56.6392125,72.3922377 56.11515,71.8681752 L56.11515,71.8681752 L49.9621187,65.7138002 L28.7281812,44.478519 L22.5603687,38.3120502 C22.2983375,38.050019 21.9556812,37.9196752 21.613025,37.9196752 L21.613025,37.9196752 C21.2703687,37.9196752 20.9277125,38.050019 20.667025,38.3120502" id="path-13"></path>
        <path d="M20.667025,38.3120502 L14.3285562,44.6491752 C13.8044937,45.1732377 13.8044937,46.021144 14.3285562,46.5438627 L14.3285562,46.5438627 L22.3279,54.5432065 C17.571025,60.3643315 12.6932125,66.1034877 7.55874374,71.6155502 L7.55874374,71.6155502 L6.02552499,70.0823315 C5.50280624,69.5596127 4.65624374,69.5596127 4.13486874,70.0823315 L4.13486874,70.0823315 L2.62852499,71.5886752 C0.876274989,73.326144 -0.0132875113,75.6575502 0,77.948644 L0,77.948644 C-0.0132875113,80.238394 0.876274989,82.571144 2.62852499,84.3207065 L2.62852499,84.3207065 L10.390025,92.0674252 C12.1409312,93.821019 14.4589,94.7105815 16.74865,94.7105815 L16.74865,94.7105815 C19.0531812,94.7105815 21.37115,93.821019 23.1220562,92.0674252 L23.1220562,92.0674252 L24.6243687,90.5758627 C25.1484312,90.0544877 25.149775,89.2052377 24.6270562,88.6811752 L24.6270562,88.6811752 L22.81165,86.8684565 C28.310275,81.7474252 34.050775,76.8696127 39.8839937,72.100644 L39.8839937,72.100644 L47.8833375,80.098644 C48.4074,80.6227065 49.2553062,80.6227065 49.7766812,80.098644 L49.7766812,80.098644 L56.11515,73.761519 C56.6392125,73.2388002 56.6392125,72.3922377 56.11515,71.8681752 L56.11515,71.8681752 L49.9621187,65.7138002 L28.7281812,44.478519 L22.5603687,38.3120502 C22.2983375,38.050019 21.9556812,37.9196752 21.613025,37.9196752 L21.613025,37.9196752 C21.2703687,37.9196752 20.9277125,38.050019 20.667025,38.3120502" id="path-15"></path>
        <path d="M20.667025,38.3120502 L14.3285562,44.6491752 C13.8044937,45.1732377 13.8044937,46.021144 14.3285562,46.5438627 L14.3285562,46.5438627 L22.3279,54.5432065 C17.571025,60.3643315 12.6932125,66.1034877 7.55874374,71.6155502 L7.55874374,71.6155502 L6.02552499,70.0823315 C5.50280624,69.5596127 4.65624374,69.5596127 4.13486874,70.0823315 L4.13486874,70.0823315 L2.62852499,71.5886752 C0.876274989,73.326144 -0.0132875113,75.6575502 0,77.948644 L0,77.948644 C-0.0132875113,80.238394 0.876274989,82.571144 2.62852499,84.3207065 L2.62852499,84.3207065 L10.390025,92.0674252 C12.1409312,93.821019 14.4589,94.7105815 16.74865,94.7105815 L16.74865,94.7105815 C19.0531812,94.7105815 21.37115,93.821019 23.1220562,92.0674252 L23.1220562,92.0674252 L24.6243687,90.5758627 C25.1484312,90.0544877 25.149775,89.2052377 24.6270562,88.6811752 L24.6270562,88.6811752 L22.81165,86.8684565 C28.310275,81.7474252 34.050775,76.8696127 39.8839937,72.100644 L39.8839937,72.100644 L47.8833375,80.098644 C48.4074,80.6227065 49.2553062,80.6227065 49.7766812,80.098644 L49.7766812,80.098644 L56.11515,73.761519 C56.6392125,73.2388002 56.6392125,72.3922377 56.11515,71.8681752 L56.11515,71.8681752 L49.9621187,65.7138002 L28.7281812,44.478519 L22.5603687,38.3120502 C22.2983375,38.050019 21.9556812,37.9196752 21.613025,37.9196752 L21.613025,37.9196752 C21.2703687,37.9196752 20.9277125,38.050019 20.667025,38.3120502" id="path-17"></path>
    </defs>
    <g id="Mood" stroke="none" stroke-width="1" fill="none" fill-rule="evenodd">
        <g id="Artboard" transform="translate(-535.000000, -295.000000)">
            <g id="Dagger" transform="translate(535.000000, 295.000000)">
                <circle id="Oval" fill-opacity="0.863414631" fill="#3113AE" cx="85" cy="85" r="85"></circle>
                <g id="logo" transform="translate(37.785006, 37.646700)">
                    <path d="M94.2484906,1.08963775 C94.5226156,0.466137747 93.9085219,-0.184237253 93.2688969,0.0482314973 C83.5132719,3.58095025 74.8716156,8.22763775 66.6035219,13.2599815 C57.8987094,18.594669 49.6655531,24.4292315 42.2682094,31.0848252 C38.7516156,34.2009815 31.1527094,41.1307002 27.6535844,44.3960127 C27.6092406,44.437669 27.6119281,44.5048565 27.6535844,44.5492002 L36.6688031,53.8372002 C36.7104594,53.8775127 36.7749594,53.881544 36.8193031,53.843919 L59.1148031,34.5382627 C59.8632719,33.891919 60.8872094,34.9145127 60.2395219,35.6629815 L40.4850531,58.477169 C40.4474281,58.5215127 40.4514594,58.590044 40.4944594,58.6290127 L49.6238969,66.8715752 C49.6668969,66.910544 49.7327406,66.9118877 49.7730531,66.8688877 C53.0276156,63.3697627 60.2260844,55.6902315 63.3422406,52.1588565 C70.0126156,44.7615127 75.8323969,36.5297002 81.1805219,27.8248877 C85.5611469,20.610294 92.0944594,5.98895025 94.2484906,1.08963775" id="Fill-324" fill="#E8E8E8"></path>
                    <path d="M56.1156875,73.7609815 L49.7772187,80.0994502 C49.2558437,80.622169 48.4079375,80.622169 47.883875,80.0994502 L39.8845312,72.1001065 C34.0499687,76.8690752 28.3108125,81.7468877 22.8121875,86.867919 L24.62625,88.6819815 C25.1489687,89.2047002 25.147625,90.0539502 24.6235625,90.5753252 L23.1225937,92.0682315 C21.3716875,93.8204815 19.0537187,94.710044 16.7491875,94.710044 C14.4580937,94.710044 12.140125,93.8204815 10.3905625,92.0682315 L2.62771874,84.320169 C0.876812489,82.5706065 -0.0127500113,80.2378565 0.000537499446,77.9481065 C-0.0127500113,75.6570127 0.876812489,73.3269502 2.62771874,71.5881377 L4.13406249,70.081794 C4.65678124,69.5590752 5.50334374,69.5590752 6.02606249,70.081794 L7.55928124,71.6150127 C12.69375,66.104294 17.5702187,60.363794 22.3270937,54.542669 L14.32775,46.5433252 C13.8050312,46.0206065 13.8050312,45.1727002 14.32775,44.6499815 L20.6662187,38.3115127 C21.1889375,37.7874502 22.0381875,37.7874502 22.5595625,38.3115127 L28.727375,44.4779815 L49.9626562,65.7132627 L56.1156875,71.8676377 C56.63975,72.3903565 56.63975,73.2382627 56.1156875,73.7609815" id="Fill-326" fill="#F06400"></path>
                    <path d="M60.2400594,35.6623096 C60.8864031,34.9138409 59.8638094,33.8912471 59.1153406,34.5389346 L37.5011219,53.2533409 L41.5243094,57.2765284 L60.2400594,35.6623096 Z" id="Fill-328" fill="#A4A5A5"></path>
                    <mask id="mask-2" fill="white">
                        <use xlink:href="#path-1"></use>
                    </mask>
                    <g id="Clip-332"></g>
                    <line x1="51.67755" y1="51.4382034" x2="51.67755" y2="103.362047" id="Stroke-331" stroke="#C05000" stroke-width="0.63" mask="url(#mask-2)"></line>
                    <mask id="mask-4" fill="white">
                        <use xlink:href="#path-3"></use>
                    </mask>
                    <g id="Clip-335"></g>
                    <line x1="45.6425" y1="51.4382034" x2="45.6425" y2="103.362047" id="Stroke-334" stroke="#C05000" stroke-width="0.63" mask="url(#mask-4)"></line>
                    <mask id="mask-6" fill="white">
                        <use xlink:href="#path-5"></use>
                    </mask>
                    <g id="Clip-338"></g>
                    <line x1="39.60745" y1="51.4382034" x2="39.60745" y2="103.362047" id="Stroke-337" stroke="#C05000" stroke-width="0.63" mask="url(#mask-6)"></line>
                    <mask id="mask-8" fill="white">
                        <use xlink:href="#path-7"></use>
                    </mask>
                    <g id="Clip-341"></g>
                    <line x1="33.5724" y1="51.4382034" x2="33.5724" y2="103.362047" id="Stroke-340" stroke="#C05000" stroke-width="0.63" mask="url(#mask-8)"></line>
                    <mask id="mask-10" fill="white">
                        <use xlink:href="#path-9"></use>
                    </mask>
                    <g id="Clip-344"></g>
                    <line x1="27.5386937" y1="51.4382034" x2="27.5386937" y2="103.362047" id="Stroke-343" stroke="#C05000" stroke-width="0.63" mask="url(#mask-10)"></line>
                    <mask id="mask-12" fill="white">
                        <use xlink:href="#path-11"></use>
                    </mask>
                    <g id="Clip-347"></g>
                    <line x1="21.5035094" y1="51.4382034" x2="21.5035094" y2="103.362047" id="Stroke-346" stroke="#C05000" stroke-width="0.63" mask="url(#mask-12)"></line>
                    <mask id="mask-14" fill="white">
                        <use xlink:href="#path-13"></use>
                    </mask>
                    <g id="Clip-350"></g>
                    <line x1="15.4684594" y1="51.4382034" x2="15.4684594" y2="103.362047" id="Stroke-349" stroke="#C05000" stroke-width="0.63" mask="url(#mask-14)"></line>
                    <mask id="mask-16" fill="white">
                        <use xlink:href="#path-15"></use>
                    </mask>
                    <g id="Clip-353"></g>
                    <line x1="9.43340936" y1="51.4382034" x2="9.43340936" y2="103.362047" id="Stroke-352" stroke="#C05000" stroke-width="0.63" mask="url(#mask-16)"></line>
                    <mask id="mask-18" fill="white">
                        <use xlink:href="#path-17"></use>
                    </mask>
                    <g id="Clip-356"></g>
                    <line x1="3.39835936" y1="51.4382034" x2="3.39835936" y2="103.362047" id="Stroke-355" stroke="#C05000" stroke-width="0.63" mask="url(#mask-18)"></line>
                    <polygon id="Fill-358" fill="#FFB31C" mask="url(#mask-18)" points="57.0657187 72.812294 48.8500312 81.0279815 13.3642812 45.5422315 21.5799687 37.326544"></polygon>
                </g>
                <rect id="Rectangle" x="0" y="0" width="170" height="170"></rect>
            </g>
        </g>
    </g>
</svg>