<?xml version="1.0" encoding="UTF-8"?>
<svg width="172px" height="172px" viewBox="0 0 172 172" version="1.1" xmlns="http://www.w3.org/2000/svg" xmlns:xlink="http://www.w3.org/1999/xlink">
    <title>Logos/Coloured/dagger</title>
    <defs>
        <polygon id="path-1" points="0.0005375 0 172 0 172 172 0.0005375 172"></polygon>
        <path d="M57.4525688,78.95875 L51.1141,85.295875 C50.5900375,85.8199375 50.5900375,86.6678437 51.1141,87.1905625 L51.1141,87.1905625 L59.1134438,95.1899062 C54.3565688,101.011031 49.4787563,106.750188 44.3442875,112.26225 L44.3442875,112.26225 L42.8110688,110.729031 C42.28835,110.206313 41.4417875,110.206313 40.9204125,110.729031 L40.9204125,110.729031 L39.4140688,112.235375 C37.6618188,113.972844 36.7722563,116.30425 36.7855438,118.595344 L36.7855438,118.595344 C36.7722563,120.885094 37.6618188,123.217844 39.4140688,124.967406 L39.4140688,124.967406 L47.1755688,132.714125 C48.926475,134.467719 51.2444438,135.357281 53.5341938,135.357281 L53.5341938,135.357281 C55.838725,135.357281 58.1566938,134.467719 59.9076,132.714125 L59.9076,132.714125 L61.4099125,131.222562 C61.933975,130.701188 61.9353188,129.851938 61.4126,129.327875 L61.4126,129.327875 L59.5971938,127.515156 C65.0958188,122.394125 70.8363188,117.516313 76.6695375,112.747344 L76.6695375,112.747344 L84.6688813,120.745344 C85.1929438,121.269406 86.04085,121.269406 86.562225,120.745344 L86.562225,120.745344 L92.9006938,114.408219 C93.4247563,113.8855 93.4247563,113.038937 92.9006938,112.514875 L92.9006938,112.514875 L86.7476625,106.3605 L65.513725,85.1252188 L59.3459125,78.95875 C59.0838813,78.6967188 58.741225,78.566375 58.3985688,78.566375 L58.3985688,78.566375 C58.0559125,78.566375 57.7132563,78.6967188 57.4525688,78.95875" id="path-3"></path>
        <path d="M57.4525688,78.95875 L51.1141,85.295875 C50.5900375,85.8199375 50.5900375,86.6678437 51.1141,87.1905625 L51.1141,87.1905625 L59.1134438,95.1899062 C54.3565688,101.011031 49.4787563,106.750188 44.3442875,112.26225 L44.3442875,112.26225 L42.8110688,110.729031 C42.28835,110.206313 41.4417875,110.206313 40.9204125,110.729031 L40.9204125,110.729031 L39.4140688,112.235375 C37.6618188,113.972844 36.7722563,116.30425 36.7855438,118.595344 L36.7855438,118.595344 C36.7722563,120.885094 37.6618188,123.217844 39.4140688,124.967406 L39.4140688,124.967406 L47.1755688,132.714125 C48.926475,134.467719 51.2444438,135.357281 53.5341938,135.357281 L53.5341938,135.357281 C55.838725,135.357281 58.1566938,134.467719 59.9076,132.714125 L59.9076,132.714125 L61.4099125,131.222562 C61.933975,130.701188 61.9353188,129.851938 61.4126,129.327875 L61.4126,129.327875 L59.5971938,127.515156 C65.0958188,122.394125 70.8363188,117.516313 76.6695375,112.747344 L76.6695375,112.747344 L84.6688813,120.745344 C85.1929438,121.269406 86.04085,121.269406 86.562225,120.745344 L86.562225,120.745344 L92.9006938,114.408219 C93.4247563,113.8855 93.4247563,113.038937 92.9006938,112.514875 L92.9006938,112.514875 L86.7476625,106.3605 L65.513725,85.1252188 L59.3459125,78.95875 C59.0838813,78.6967188 58.741225,78.566375 58.3985688,78.566375 L58.3985688,78.566375 C58.0559125,78.566375 57.7132563,78.6967188 57.4525688,78.95875" id="path-5"></path>
        <path d="M57.4525688,78.95875 L51.1141,85.295875 C50.5900375,85.8199375 50.5900375,86.6678437 51.1141,87.1905625 L51.1141,87.1905625 L59.1134438,95.1899062 C54.3565688,101.011031 49.4787563,106.750188 44.3442875,112.26225 L44.3442875,112.26225 L42.8110688,110.729031 C42.28835,110.206313 41.4417875,110.206313 40.9204125,110.729031 L40.9204125,110.729031 L39.4140688,112.235375 C37.6618188,113.972844 36.7722563,116.30425 36.7855438,118.595344 L36.7855438,118.595344 C36.7722563,120.885094 37.6618188,123.217844 39.4140688,124.967406 L39.4140688,124.967406 L47.1755688,132.714125 C48.926475,134.467719 51.2444438,135.357281 53.5341938,135.357281 L53.5341938,135.357281 C55.838725,135.357281 58.1566938,134.467719 59.9076,132.714125 L59.9076,132.714125 L61.4099125,131.222562 C61.933975,130.701188 61.9353188,129.851938 61.4126,129.327875 L61.4126,129.327875 L59.5971938,127.515156 C65.0958188,122.394125 70.8363188,117.516313 76.6695375,112.747344 L76.6695375,112.747344 L84.6688813,120.745344 C85.1929438,121.269406 86.04085,121.269406 86.562225,120.745344 L86.562225,120.745344 L92.9006938,114.408219 C93.4247563,113.8855 93.4247563,113.038937 92.9006938,112.514875 L92.9006938,112.514875 L86.7476625,106.3605 L65.513725,85.1252188 L59.3459125,78.95875 C59.0838813,78.6967188 58.741225,78.566375 58.3985688,78.566375 L58.3985688,78.566375 C58.0559125,78.566375 57.7132563,78.6967188 57.4525688,78.95875" id="path-7"></path>
        <path d="M57.4525688,78.95875 L51.1141,85.295875 C50.5900375,85.8199375 50.5900375,86.6678437 51.1141,87.1905625 L51.1141,87.1905625 L59.1134438,95.1899062 C54.3565688,101.011031 49.4787563,106.750188 44.3442875,112.26225 L44.3442875,112.26225 L42.8110688,110.729031 C42.28835,110.206313 41.4417875,110.206313 40.9204125,110.729031 L40.9204125,110.729031 L39.4140688,112.235375 C37.6618188,113.972844 36.7722563,116.30425 36.7855438,118.595344 L36.7855438,118.595344 C36.7722563,120.885094 37.6618188,123.217844 39.4140688,124.967406 L39.4140688,124.967406 L47.1755688,132.714125 C48.926475,134.467719 51.2444438,135.357281 53.5341938,135.357281 L53.5341938,135.357281 C55.838725,135.357281 58.1566938,134.467719 59.9076,132.714125 L59.9076,132.714125 L61.4099125,131.222562 C61.933975,130.701188 61.9353188,129.851938 61.4126,129.327875 L61.4126,129.327875 L59.5971938,127.515156 C65.0958188,122.394125 70.8363188,117.516313 76.6695375,112.747344 L76.6695375,112.747344 L84.6688813,120.745344 C85.1929438,121.269406 86.04085,121.269406 86.562225,120.745344 L86.562225,120.745344 L92.9006938,114.408219 C93.4247563,113.8855 93.4247563,113.038937 92.9006938,112.514875 L92.9006938,112.514875 L86.7476625,106.3605 L65.513725,85.1252188 L59.3459125,78.95875 C59.0838813,78.6967188 58.741225,78.566375 58.3985688,78.566375 L58.3985688,78.566375 C58.0559125,78.566375 57.7132563,78.6967188 57.4525688,78.95875" id="path-9"></path>
        <path d="M57.4525688,78.95875 L51.1141,85.295875 C50.5900375,85.8199375 50.5900375,86.6678437 51.1141,87.1905625 L51.1141,87.1905625 L59.1134438,95.1899062 C54.3565688,101.011031 49.4787563,106.750188 44.3442875,112.26225 L44.3442875,112.26225 L42.8110688,110.729031 C42.28835,110.206313 41.4417875,110.206313 40.9204125,110.729031 L40.9204125,110.729031 L39.4140688,112.235375 C37.6618188,113.972844 36.7722563,116.30425 36.7855438,118.595344 L36.7855438,118.595344 C36.7722563,120.885094 37.6618188,123.217844 39.4140688,124.967406 L39.4140688,124.967406 L47.1755688,132.714125 C48.926475,134.467719 51.2444438,135.357281 53.5341938,135.357281 L53.5341938,135.357281 C55.838725,135.357281 58.1566938,134.467719 59.9076,132.714125 L59.9076,132.714125 L61.4099125,131.222562 C61.933975,130.701188 61.9353188,129.851938 61.4126,129.327875 L61.4126,129.327875 L59.5971938,127.515156 C65.0958188,122.394125 70.8363188,117.516313 76.6695375,112.747344 L76.6695375,112.747344 L84.6688813,120.745344 C85.1929438,121.269406 86.04085,121.269406 86.562225,120.745344 L86.562225,120.745344 L92.9006938,114.408219 C93.4247563,113.8855 93.4247563,113.038937 92.9006938,112.514875 L92.9006938,112.514875 L86.7476625,106.3605 L65.513725,85.1252188 L59.3459125,78.95875 C59.0838813,78.6967188 58.741225,78.566375 58.3985688,78.566375 L58.3985688,78.566375 C58.0559125,78.566375 57.7132563,78.6967188 57.4525688,78.95875" id="path-11"></path>
        <path d="M57.4525688,78.95875 L51.1141,85.295875 C50.5900375,85.8199375 50.5900375,86.6678437 51.1141,87.1905625 L51.1141,87.1905625 L59.1134438,95.1899062 C54.3565688,101.011031 49.4787563,106.750188 44.3442875,112.26225 L44.3442875,112.26225 L42.8110688,110.729031 C42.28835,110.206313 41.4417875,110.206313 40.9204125,110.729031 L40.9204125,110.729031 L39.4140688,112.235375 C37.6618188,113.972844 36.7722563,116.30425 36.7855438,118.595344 L36.7855438,118.595344 C36.7722563,120.885094 37.6618188,123.217844 39.4140688,124.967406 L39.4140688,124.967406 L47.1755688,132.714125 C48.926475,134.467719 51.2444438,135.357281 53.5341938,135.357281 L53.5341938,135.357281 C55.838725,135.357281 58.1566938,134.467719 59.9076,132.714125 L59.9076,132.714125 L61.4099125,131.222562 C61.933975,130.701188 61.9353188,129.851938 61.4126,129.327875 L61.4126,129.327875 L59.5971938,127.515156 C65.0958188,122.394125 70.8363188,117.516313 76.6695375,112.747344 L76.6695375,112.747344 L84.6688813,120.745344 C85.1929438,121.269406 86.04085,121.269406 86.562225,120.745344 L86.562225,120.745344 L92.9006938,114.408219 C93.4247563,113.8855 93.4247563,113.038937 92.9006938,112.514875 L92.9006938,112.514875 L86.7476625,106.3605 L65.513725,85.1252188 L59.3459125,78.95875 C59.0838813,78.6967188 58.741225,78.566375 58.3985688,78.566375 L58.3985688,78.566375 C58.0559125,78.566375 57.7132563,78.6967188 57.4525688,78.95875" id="path-13"></path>
        <path d="M57.4525688,78.95875 L51.1141,85.295875 C50.5900375,85.8199375 50.5900375,86.6678437 51.1141,87.1905625 L51.1141,87.1905625 L59.1134438,95.1899062 C54.3565688,101.011031 49.4787563,106.750188 44.3442875,112.26225 L44.3442875,112.26225 L42.8110688,110.729031 C42.28835,110.206313 41.4417875,110.206313 40.9204125,110.729031 L40.9204125,110.729031 L39.4140688,112.235375 C37.6618188,113.972844 36.7722563,116.30425 36.7855438,118.595344 L36.7855438,118.595344 C36.7722563,120.885094 37.6618188,123.217844 39.4140688,124.967406 L39.4140688,124.967406 L47.1755688,132.714125 C48.926475,134.467719 51.2444438,135.357281 53.5341938,135.357281 L53.5341938,135.357281 C55.838725,135.357281 58.1566938,134.467719 59.9076,132.714125 L59.9076,132.714125 L61.4099125,131.222562 C61.933975,130.701188 61.9353188,129.851938 61.4126,129.327875 L61.4126,129.327875 L59.5971938,127.515156 C65.0958188,122.394125 70.8363188,117.516313 76.6695375,112.747344 L76.6695375,112.747344 L84.6688813,120.745344 C85.1929438,121.269406 86.04085,121.269406 86.562225,120.745344 L86.562225,120.745344 L92.9006938,114.408219 C93.4247563,113.8855 93.4247563,113.038937 92.9006938,112.514875 L92.9006938,112.514875 L86.7476625,106.3605 L65.513725,85.1252188 L59.3459125,78.95875 C59.0838813,78.6967188 58.741225,78.566375 58.3985688,78.566375 L58.3985688,78.566375 C58.0559125,78.566375 57.7132563,78.6967188 57.4525688,78.95875" id="path-15"></path>
        <path d="M57.4525688,78.95875 L51.1141,85.295875 C50.5900375,85.8199375 50.5900375,86.6678437 51.1141,87.1905625 L51.1141,87.1905625 L59.1134438,95.1899062 C54.3565688,101.011031 49.4787563,106.750188 44.3442875,112.26225 L44.3442875,112.26225 L42.8110688,110.729031 C42.28835,110.206313 41.4417875,110.206313 40.9204125,110.729031 L40.9204125,110.729031 L39.4140688,112.235375 C37.6618188,113.972844 36.7722563,116.30425 36.7855438,118.595344 L36.7855438,118.595344 C36.7722563,120.885094 37.6618188,123.217844 39.4140688,124.967406 L39.4140688,124.967406 L47.1755688,132.714125 C48.926475,134.467719 51.2444438,135.357281 53.5341938,135.357281 L53.5341938,135.357281 C55.838725,135.357281 58.1566938,134.467719 59.9076,132.714125 L59.9076,132.714125 L61.4099125,131.222562 C61.933975,130.701188 61.9353188,129.851938 61.4126,129.327875 L61.4126,129.327875 L59.5971938,127.515156 C65.0958188,122.394125 70.8363188,117.516313 76.6695375,112.747344 L76.6695375,112.747344 L84.6688813,120.745344 C85.1929438,121.269406 86.04085,121.269406 86.562225,120.745344 L86.562225,120.745344 L92.9006938,114.408219 C93.4247563,113.8855 93.4247563,113.038937 92.9006938,112.514875 L92.9006938,112.514875 L86.7476625,106.3605 L65.513725,85.1252188 L59.3459125,78.95875 C59.0838813,78.6967188 58.741225,78.566375 58.3985688,78.566375 L58.3985688,78.566375 C58.0559125,78.566375 57.7132563,78.6967188 57.4525688,78.95875" id="path-17"></path>
        <path d="M57.4525688,78.95875 L51.1141,85.295875 C50.5900375,85.8199375 50.5900375,86.6678437 51.1141,87.1905625 L51.1141,87.1905625 L59.1134438,95.1899062 C54.3565688,101.011031 49.4787563,106.750188 44.3442875,112.26225 L44.3442875,112.26225 L42.8110688,110.729031 C42.28835,110.206313 41.4417875,110.206313 40.9204125,110.729031 L40.9204125,110.729031 L39.4140688,112.235375 C37.6618188,113.972844 36.7722563,116.30425 36.7855438,118.595344 L36.7855438,118.595344 C36.7722563,120.885094 37.6618188,123.217844 39.4140688,124.967406 L39.4140688,124.967406 L47.1755688,132.714125 C48.926475,134.467719 51.2444438,135.357281 53.5341938,135.357281 L53.5341938,135.357281 C55.838725,135.357281 58.1566938,134.467719 59.9076,132.714125 L59.9076,132.714125 L61.4099125,131.222562 C61.933975,130.701188 61.9353188,129.851938 61.4126,129.327875 L61.4126,129.327875 L59.5971938,127.515156 C65.0958188,122.394125 70.8363188,117.516313 76.6695375,112.747344 L76.6695375,112.747344 L84.6688813,120.745344 C85.1929438,121.269406 86.04085,121.269406 86.562225,120.745344 L86.562225,120.745344 L92.9006938,114.408219 C93.4247563,113.8855 93.4247563,113.038937 92.9006938,112.514875 L92.9006938,112.514875 L86.7476625,106.3605 L65.513725,85.1252188 L59.3459125,78.95875 C59.0838813,78.6967188 58.741225,78.566375 58.3985688,78.566375 L58.3985688,78.566375 C58.0559125,78.566375 57.7132563,78.6967188 57.4525688,78.95875" id="path-19"></path>
    </defs>
    <g id="Mood" stroke="none" stroke-width="1" fill="none" fill-rule="evenodd">
        <g id="Artboard" transform="translate(-463.000000, -282.000000)">
            <g id="Group" transform="translate(463.000000, 282.000000)">
                <g id="Group-44" transform="translate(-0.000537, 0.000000)">
                    <mask id="mask-2" fill="white">
                        <use xlink:href="#path-1"></use>
                    </mask>
                    <g id="Clip-322"></g>
                    <path d="M172,86 C172,133.497531 133.497531,172 86,172 C38.5038125,172 0,133.497531 0,86 C0,38.5038125 38.5038125,0 86,0 C133.497531,0 172,38.5038125 172,86" id="Fill-321" fill="#783200" mask="url(#mask-2)"></path>
                    <path d="M131.034034,41.7363375 C131.308159,41.1128375 130.694066,40.4624625 130.054441,40.6949312 C120.298816,44.22765 111.657159,48.8743375 103.389066,53.9066812 C94.6842531,59.2413688 86.4510969,65.0759313 79.0537531,71.731525 C75.5371594,74.8476813 67.9382531,81.7774 64.4391281,85.0427125 C64.3947844,85.0843688 64.3974719,85.1515563 64.4391281,85.1959 L73.4543469,94.4839 C73.4960031,94.5242125 73.5605031,94.5282437 73.6048469,94.4906188 L95.9003469,75.1849625 C96.6488156,74.5386188 97.6727531,75.5612125 97.0250656,76.3096812 L77.2705969,99.1238687 C77.2329719,99.1682125 77.2370031,99.2367438 77.2800031,99.2757125 L86.4094406,107.518275 C86.4524406,107.557244 86.5182844,107.558587 86.5585969,107.515587 C89.8131594,104.016462 97.0116281,96.3369312 100.127784,92.8055563 C106.798159,85.4082125 112.617941,77.1764 117.966066,68.4715875 C122.346691,61.2569938 128.880003,46.63565 131.034034,41.7363375" id="Fill-324" fill="#E8E8E8" mask="url(#mask-2)"></path>
                    <path d="M92.9012313,114.407681 L86.5627625,120.74615 C86.0413875,121.268869 85.1934813,121.268869 84.6694188,120.74615 L76.670075,112.746806 C70.8355125,117.515775 65.0963563,122.393587 59.5977313,127.514619 L61.4117938,129.328681 C61.9345125,129.8514 61.9331688,130.70065 61.4091063,131.222025 L59.9081375,132.714931 C58.1572313,134.467181 55.8392625,135.356744 53.5347313,135.356744 C51.2436375,135.356744 48.9256688,134.467181 47.1761063,132.714931 L39.4132625,124.966869 C37.6623563,123.217306 36.7727938,120.884556 36.7860813,118.594806 C36.7727938,116.303712 37.6623563,113.97365 39.4132625,112.234837 L40.9196063,110.728494 C41.442325,110.205775 42.2888875,110.205775 42.8116063,110.728494 L44.344825,112.261712 C49.4792938,106.750994 54.3557625,101.010494 59.1126375,95.1893687 L51.1132938,87.190025 C50.590575,86.6673062 50.590575,85.8194 51.1132938,85.2966812 L57.4517625,78.9582125 C57.9744813,78.43415 58.8237313,78.43415 59.3451063,78.9582125 L65.5129188,85.1246812 L86.7482,106.359962 L92.9012313,112.514337 C93.4252938,113.037056 93.4252938,113.884962 92.9012313,114.407681" id="Fill-326" fill="#F06400" mask="url(#mask-2)"></path>
                    <path d="M97.0256031,76.3090094 C97.6719469,75.5605406 96.6493531,74.5379469 95.9008844,75.1856344 L74.2866656,93.9000406 L78.3098531,97.9232281 L97.0256031,76.3090094 Z" id="Fill-328" fill="#A4A5A5" mask="url(#mask-2)"></path>
                    <mask id="mask-4" fill="white">
                        <use xlink:href="#path-3"></use>
                    </mask>
                    <g id="Clip-332"></g>
                    <line x1="88.4630938" y1="92.0849031" x2="88.4630938" y2="144.008747" id="Stroke-331" stroke="#C05000" stroke-width="0.63" mask="url(#mask-4)"></line>
                    <mask id="mask-6" fill="white">
                        <use xlink:href="#path-5"></use>
                    </mask>
                    <g id="Clip-335"></g>
                    <line x1="82.4280437" y1="92.0849031" x2="82.4280437" y2="144.008747" id="Stroke-334" stroke="#C05000" stroke-width="0.63" mask="url(#mask-6)"></line>
                    <mask id="mask-8" fill="white">
                        <use xlink:href="#path-7"></use>
                    </mask>
                    <g id="Clip-338"></g>
                    <line x1="76.3929937" y1="92.0849031" x2="76.3929937" y2="144.008747" id="Stroke-337" stroke="#C05000" stroke-width="0.63" mask="url(#mask-8)"></line>
                    <mask id="mask-10" fill="white">
                        <use xlink:href="#path-9"></use>
                    </mask>
                    <g id="Clip-341"></g>
                    <line x1="70.3579437" y1="92.0849031" x2="70.3579437" y2="144.008747" id="Stroke-340" stroke="#C05000" stroke-width="0.63" mask="url(#mask-10)"></line>
                    <mask id="mask-12" fill="white">
                        <use xlink:href="#path-11"></use>
                    </mask>
                    <g id="Clip-344"></g>
                    <line x1="64.3242375" y1="92.0849031" x2="64.3242375" y2="144.008747" id="Stroke-343" stroke="#C05000" stroke-width="0.63" mask="url(#mask-12)"></line>
                    <mask id="mask-14" fill="white">
                        <use xlink:href="#path-13"></use>
                    </mask>
                    <g id="Clip-347"></g>
                    <line x1="58.2890531" y1="92.0849031" x2="58.2890531" y2="144.008747" id="Stroke-346" stroke="#C05000" stroke-width="0.63" mask="url(#mask-14)"></line>
                    <mask id="mask-16" fill="white">
                        <use xlink:href="#path-15"></use>
                    </mask>
                    <g id="Clip-350"></g>
                    <line x1="52.2540031" y1="92.0849031" x2="52.2540031" y2="144.008747" id="Stroke-349" stroke="#C05000" stroke-width="0.63" mask="url(#mask-16)"></line>
                    <mask id="mask-18" fill="white">
                        <use xlink:href="#path-17"></use>
                    </mask>
                    <g id="Clip-353"></g>
                    <line x1="46.2189531" y1="92.0849031" x2="46.2189531" y2="144.008747" id="Stroke-352" stroke="#C05000" stroke-width="0.63" mask="url(#mask-18)"></line>
                    <mask id="mask-20" fill="white">
                        <use xlink:href="#path-19"></use>
                    </mask>
                    <g id="Clip-356"></g>
                    <line x1="40.1839031" y1="92.0849031" x2="40.1839031" y2="144.008747" id="Stroke-355" stroke="#C05000" stroke-width="0.63" mask="url(#mask-20)"></line>
                    <polygon id="Fill-358" fill="#FFB31C" mask="url(#mask-20)" points="93.8512625 113.458994 85.635575 121.674681 50.149825 86.1889313 58.3655125 77.9732438"></polygon>
                </g>
            </g>
        </g>
    </g>
</svg>